<?xml version="1.0" encoding="UTF-8" standalone="no"?>
<svg
   version="1.1"
   id="jekyll"
   viewBox="0 0 405.02573 189"
   xml:space="preserve"
   xmlns="http://www.w3.org/2000/svg"
   xmlns:svg="http://www.w3.org/2000/svg">
<g
   id="g144"
   transform="translate(-47.560405,-155.5)">
	<path
   class="st0"
   d="m 428,186.3 c 2.4,2 3.6,3.8 3.1,5.1 0,0.1 -0.1,0.1 -0.1,0.1 v 0.1 c -0.1,0.2 -0.4,0.4 -0.6,0.6 0,0 -4.9,4.3 -5.8,6.6 l -43.9,114.3 c -2.6,6.4 -8.7,10.4 -15.2,10.4 -1.9,0 -3.9,-0.3 -5.9,-1.1 -1.3,-0.5 -2.5,-1.1 -3.6,-1.9 1.4,1.2 3,2.2 4.9,2.9 1.9,0.7 3.9,1.1 5.9,1.1 6.5,0 12.7,-3.9 15.2,-10.4 l 44,-114.2 c 0.9,-2.2 5.8,-6.6 5.8,-6.6 0.2,-0.2 0.4,-0.4 0.6,-0.6 v -0.1 c 0,-0.1 0.1,-0.1 0.1,-0.1 0.5,-1.6 -1.2,-3.8 -4.5,-6.2"
   id="path104" />
	
	<path
   class="st1"
   d="m 399.3,175.5 c -2.7,0 -4.5,0.6 -5,1.8 0,0.1 0,0.1 -0.1,0.2 -0.1,0.3 -0.1,0.6 0,0.9 0,0 0.2,1.1 0.3,2.5 2,7.2 6.8,11.6 6.8,11.6 l -19.5,50.9 c 0,0 0,0 0,0 5,-2.9 9.1,-2.3 14.5,-4.7 5.6,-2.4 11.7,-9.5 11.7,-9.5 l -31.7,82.4 c -1.8,4.6 -6.2,7.4 -11,7.4 -1.4,0 -2.8,-0.3 -4.2,-0.8 -0.7,-0.3 -1.3,-0.6 -1.9,-0.9 1.1,2.2 2.7,4.1 4.7,5.6 -1.5,-0.1 -3,-0.4 -4.4,-1 -6.4,-2.5 -10.4,-8.5 -10.4,-15 -0.1,5.3 2.5,10.4 6.9,13.5 1.1,0.8 2.3,1.4 3.6,1.9 1.9,0.7 3.9,1.1 5.9,1.1 6.5,0 12.7,-3.9 15.2,-10.4 l 43.9,-114.3 c 0.9,-2.2 5.8,-6.6 5.8,-6.6 0.2,-0.2 0.4,-0.4 0.6,-0.6 v -0.1 c 0,-0.1 0.1,-0.1 0.1,-0.1 0.5,-1.3 -0.7,-3.2 -3.1,-5.1 -2.9,-2.4 -7.7,-5.1 -13.3,-7.3 -5.9,-2.2 -11.5,-3.4 -15.4,-3.4"
   id="path106" />
	
	<path
   class="st2"
   d="m 377.3,294.2 c -0.7,0 -1.3,-0.6 -1.3,-1.3 0,-0.7 0.6,-1.3 1.3,-1.3 0.7,0 1.3,0.6 1.3,1.3 0,0.7 -0.6,1.3 -1.3,1.3 m -1.8,-18.6 c -2,0 -3.6,-1.6 -3.6,-3.6 0,-2 1.6,-3.6 3.6,-3.6 2,0 3.6,1.6 3.6,3.6 0,2 -1.6,3.6 -3.6,3.6 M 388.2,263 c -1.1,0 -1.9,-0.9 -1.9,-1.9 0,-1.1 0.9,-1.9 1.9,-1.9 1.1,0 1.9,0.9 1.9,1.9 0,1 -0.8,1.9 -1.9,1.9 m 19.9,-33.8 c 0,0 -6.1,7.1 -11.7,9.5 -5.5,2.4 -9.6,1.8 -14.5,4.7 0,0 0,0 0,0 l -3,7.8 c 0.2,-0.4 0.6,-0.6 1.1,-0.6 0.7,0 1.3,0.6 1.3,1.3 0,0.7 -0.6,1.3 -1.3,1.3 -0.7,0 -1.3,-0.6 -1.3,-1.3 0,-0.1 0,-0.2 0,-0.3 l -5.6,14.7 c 0.1,0.4 -0.1,1.1 -0.6,1.6 0,0 0,0 0,0 l -3.4,9 c 0.2,-0.1 0.5,-0.1 0.7,-0.1 1.1,0 1.9,0.9 1.9,1.9 0,1.1 -0.9,1.9 -1.9,1.9 -0.8,0 -1.4,-0.4 -1.7,-1.1 l -9.5,24.7 c -1.6,4.5 -1.2,9.2 0.8,13.1 0.6,0.4 1.2,0.7 1.9,0.9 1.4,0.5 2.8,0.8 4.2,0.8 4.7,0 9.1,-2.9 11,-7.4 l 31.6,-82.4"
   id="path108" />
	<path
   class="st3"
   d="m 423.5,189.1 c 0.6,-1.6 -3.9,-4.9 -10.2,-7.3 -6.2,-2.4 -11.8,-3 -12.4,-1.4 -0.6,1.6 3.9,4.9 10.2,7.3 6.2,2.4 11.7,3 12.4,1.4 z"
   id="path110" />
	<path
   class="st4"
   d="m 357.8,281.5 c -0.1,0.1 -0.2,0.1 -0.2,0.2 l -7.4,19.4 c -0.7,2 -1.1,4 -1,5.9 0,-1.9 0.4,-3.7 1,-5.6 l 7.6,-19.9 m 36.1,-103.1 c 0,0 0.9,6 -0.1,8.7 l -34.5,90.1 c 0.1,-0.1 0.2,-0.1 0.3,-0.2 l 34.6,-89.9 c 0.6,-1.6 0.6,-4.3 0.4,-6.3 -0.3,-0.7 -0.5,-1.5 -0.7,-2.4"
   id="path112" />
	
	
	<path
   class="st5"
   d="m 364.6,275.8 c -2.1,1.9 -4.4,3.9 -6.8,5.7 l -7.6,19.9 c -0.7,1.8 -1,3.7 -1,5.6 0.1,6.5 4,12.5 10.4,15 1.4,0.6 2.9,0.9 4.4,1 -2,-1.5 -3.6,-3.5 -4.7,-5.6 -4.8,-2.9 -7.2,-9 -5.2,-14.3 l 10.5,-27.3 m 29.9,-94.9 c 0.2,2 0.2,4.7 -0.4,6.3 l -34.6,89.9 c 2.4,-1.8 4.7,-3.7 6.7,-5.5 l 8.2,-21.2 c 0,0 2.5,-4.1 7.5,-7 l 19.5,-50.9 c -0.1,0 -4.8,-4.4 -6.9,-11.6"
   id="path114" />
	
	<path
   class="st6"
   d="m 372.4,268 c -1.8,1.9 -4.6,4.8 -7.8,7.8 l -10.5,27.3 c -2,5.3 0.4,11.3 5.2,14.3 -2,-3.9 -2.4,-8.7 -0.8,-13.1 l 9.5,-24.7 c -0.1,-0.2 -0.2,-0.5 -0.2,-0.8 0,-0.8 0.5,-1.5 1.2,-1.8 l 3.4,-9 m 9.4,-24.6 c -5,2.9 -7.5,7 -7.5,7 l -8.2,21.2 c 2.2,-2 4,-3.7 5.1,-4.8 0.6,-0.6 1,-0.8 1.3,-0.8 0.2,0 0.4,0.1 0.4,0.4 l 5.6,-14.7 c 0,-0.1 0.1,-0.3 0.1,-0.4 l 3.2,-7.9"
   id="path116" />
	
	<path
   class="st7"
   d="m 379.9,250.6 c -0.5,0 -0.9,0.3 -1.1,0.6 l -0.1,0.4 c 0,0.1 0,0.2 0,0.3 0,0.7 0.6,1.3 1.3,1.3 0.7,0 1.3,-0.6 1.3,-1.3 -0.1,-0.7 -0.7,-1.3 -1.4,-1.3"
   id="path118" />
	
	<path
   class="st8"
   d="m 378.8,251.3 c -0.1,0.1 -0.1,0.2 -0.1,0.4 l 0.1,-0.4"
   id="path120" />
	
	<path
   class="st9"
   d="m 388.2,259.1 c -1.1,0 -1.9,0.9 -1.9,1.9 0,1.1 0.9,1.9 1.9,1.9 1.1,0 1.9,-0.9 1.9,-1.9 0,-1 -0.8,-1.9 -1.9,-1.9"
   id="path122" />
	
	<path
   class="st10"
   d="m 375.5,268.4 c -2,0 -3.6,1.6 -3.6,3.6 0,2 1.6,3.6 3.6,3.6 2,0 3.6,-1.6 3.6,-3.6 0,-2 -1.6,-3.6 -3.6,-3.6"
   id="path124" />
	
	<path
   class="st11"
   d="m 369.7,276.8 c -0.3,0 -0.5,0.1 -0.7,0.1 l -1,2.6 c 0.3,0.6 1,1.1 1.7,1.1 1.1,0 1.9,-0.9 1.9,-1.9 0,-1.1 -0.8,-1.9 -1.9,-1.9"
   id="path126" />
	
	<path
   class="st12"
   d="m 369,276.9 c -0.7,0.3 -1.2,1 -1.2,1.8 0,0.3 0.1,0.6 0.2,0.8 l 1,-2.6"
   id="path128" />
	
	<path
   class="st13"
   d="m 377.3,291.6 c -0.7,0 -1.3,0.6 -1.3,1.3 0,0.7 0.6,1.3 1.3,1.3 0.7,0 1.3,-0.6 1.3,-1.3 0,-0.7 -0.6,-1.3 -1.3,-1.3"
   id="path130" />
	<path
   class="st0"
   d="m 148,249.9 c -0.1,0 -0.2,0 -0.2,0 -0.5,0 -1.4,0.9 -0.6,1.3 1.1,0.4 1.6,1.3 1.6,2.6 -0.9,5.3 -7.6,11.4 -10.1,13.4 -0.5,0.5 0.1,1.7 0.6,1.7 0.1,0 0.2,0 0.3,-0.1 1.4,-1.1 4.4,-3.5 6.8,-6.6 -4,8.9 -11.8,20.4 -14.8,24.5 -11.7,16.1 -29.4,31 -41.6,31 -9.8,0 -18,-6.6 -19.8,-16.3 -0.1,-0.5 -0.5,-0.9 -0.8,-0.9 -0.3,0 -0.6,0.3 -0.5,1 2.2,13.3 12.5,18.5 24.9,18.5 13.6,0 29.6,-9.8 38.4,-19.9 14.3,-16.3 23.5,-35 21,-45.6 -1.1,-3.8 -3.6,-4.6 -5.2,-4.6 m 154.2,-11.7 c -0.6,0 -1.2,0.1 -1.9,0.3 -2.7,0.8 -5.3,6 -7.3,10.4 -6,8.9 -16,21 -23,27.4 -2.9,2.5 -5.7,4.2 -7.2,4.2 -1.6,0 -1.5,-2.1 2.2,-7.4 2.9,-4 6.5,-8.2 8.6,-12.5 3.4,-7.4 -0.5,-12 -6.1,-12 -2.5,0 -5.3,0.9 -8,2.9 -4.9,3.8 -11.5,11.5 -16.8,15.8 -1.1,0.9 -1.1,2.1 -0.5,2.1 0.2,0 0.5,-0.1 0.8,-0.4 4.1,-3.3 11.4,-11 17.7,-15.5 1.9,-1.4 3.4,-2 4.3,-2 1.7,0 1.9,1.8 -0.1,3.9 -4.1,4.8 -11.4,13.1 -13.3,18.3 -2.6,7.9 0.5,11.4 5.7,11.4 7.1,0 17.8,-11.1 24.9,-19.9 2.4,-3 4.9,-6.5 7.1,-9.8 -6.2,12 -12.7,24.2 -20.7,35.2 -11.4,15.5 -25.7,27.2 -39.2,27.2 -9.8,0 -18.2,-6.6 -20,-16.3 -0.1,-0.5 -0.4,-0.9 -0.8,-0.9 -0.3,0 -0.6,0.3 -0.5,1 2.2,13.3 12.5,18.5 24.9,18.5 13.6,0 26.7,-7.9 35.9,-17.6 18.5,-19.5 20.7,-41.5 26.4,-53.8 2.3,-4.8 4.5,-5.7 6.3,-5.7 0.3,0 0.6,0 0.9,0.1 0.3,0 0.5,0 0.7,0 2.2,0 3,-1.3 2.6,-2.6 0.1,-1 -1.4,-2.3 -3.6,-2.3 m -142.3,-3.8 c -1.8,0 -3.9,1 -5.5,2.8 -2.5,2.7 -2.9,6.1 -0.9,7.6 0.6,0.5 1.5,0.8 2.3,0.8 1.8,0 3.9,-1 5.4,-2.7 2.5,-2.7 2.9,-6.2 0.9,-7.7 -0.5,-0.5 -1.3,-0.8 -2.2,-0.8 m 179.3,-21 c -4.8,0.1 -13.5,3.5 -17.5,6.6 -0.7,0.7 -0.6,1.1 -0.1,1.1 0.2,0 0.4,-0.1 0.8,-0.2 0.8,-0.3 1.7,-0.8 2.6,-1.1 0.9,-0.5 1.5,-0.7 1.9,-0.7 2,0 0.6,3.7 -0.2,5.3 -5.4,9.5 -15,22.7 -20.1,29.4 -4.1,5.5 -9.2,11.1 -13.1,14.2 -1.1,0.9 -1,1.8 -0.2,1.8 0.3,0 0.7,-0.1 1.1,-0.4 1.4,-0.9 3.5,-3 5.8,-5.4 -4.3,8.5 -7.8,20.5 3.5,22 0.6,0.1 1.2,0.1 1.8,0.1 9.2,0 19.7,-9 26.7,-15.8 0.8,-0.8 1.7,-1.7 2.6,-2.6 0.2,-0.2 0.4,-0.4 0.6,-0.6 -4.3,8.5 -7.8,20.5 3.5,22 0.6,0.1 1.2,0.1 1.8,0.1 5.5,0 11.5,-3.3 16.9,-7.3 l 1.7,-4.5 c -4,3 -8.2,5.7 -11.9,7.1 -2.3,0.9 -4.1,1.3 -5.5,1.3 -12.4,0 12.2,-32.9 14.5,-35.8 5.6,-7.1 18.1,-19.3 21.9,-25.3 2.7,-4.6 2.6,-8.2 -3.8,-8.2 -4.8,0.1 -13.5,3.5 -17.5,6.6 -0.7,0.7 -0.6,1.1 -0.1,1.1 0.2,0 0.4,-0.1 0.8,-0.2 0.8,-0.3 1.7,-0.8 2.6,-1.1 0.9,-0.5 1.5,-0.7 1.9,-0.7 2,0 0.6,3.7 -0.2,5.3 -5.4,9.5 -15,22.7 -20.1,29.4 -2.4,3.3 -5.1,6.5 -7.8,9.2 -4.8,4.6 -14.5,12.8 -21.8,15.5 -2.3,0.9 -4.1,1.3 -5.5,1.3 -12.4,0 12.2,-32.9 14.5,-35.8 5.6,-7 18,-19.1 21.8,-25.2 2.6,-4.9 2.5,-8.5 -3.9,-8.5 m -122.9,56.2 c -1.2,0 -2.1,-0.2 -2.8,-0.6 l -0.6,-0.4 c -0.4,-0.6 -0.8,-1.3 -1.1,-1.9 2.5,-3.1 5.3,-5.8 8.2,-8.3 4.9,-4.4 8.8,-6 11.5,-6 5.6,0 6.1,7 -0.2,11.8 -3.9,3 -10.7,5.4 -15,5.4 M 261,203.4 c -5.1,0 -12.2,2.9 -20,10 -15.3,14.1 -25.3,28.8 -34,47.9 -3,3.6 -5.2,6.6 -7.9,8.9 -0.4,0.3 -0.6,0.6 -0.8,0.9 -7.5,6.4 -19.2,15.1 -26.6,15.1 -0.1,0 -0.2,0 -0.3,0 -5,0 -7.1,-3.9 -6.2,-8.8 1.4,-7.9 9.6,-17.2 16.6,-20.4 1.7,-0.8 3.3,-1.1 4.7,-1.1 5.8,0 7.5,6.3 -2.2,11.4 -4.6,2.3 -10,3.6 -12.2,3.6 -2.6,0 -2.4,1.1 -0.1,1.1 0.2,0 0.3,0 0.5,0 3.7,0 9.2,-1.5 12.9,-3.2 12.2,-5.8 13,-16.7 -0.3,-17.1 -0.3,0 -0.6,0 -0.9,0 -14.2,0 -30.8,12 -30.7,27.2 0.1,7 5.7,10.7 13.3,10.7 12.8,-0.1 24.1,-9.8 33.4,-18.3 1.4,-1.1 2.6,-2.3 3.9,-3.6 -3.3,8.2 -4.9,15.9 -4.1,21.6 0.5,4.1 2.9,6 4.7,7.6 0.1,0.1 0.2,0.1 0.3,0.1 0.3,0 0.7,-0.3 0.3,-0.9 -2.7,-3.2 -1.9,-12.8 1.8,-22.1 2.7,5.4 12,11.9 22.6,11.9 1.8,0 3.6,-0.2 5.5,-0.6 3.8,-0.9 6.8,-3 6.8,-6.3 0,-0.2 -0.2,-0.3 -0.3,-0.3 -0.2,0 -0.3,0.1 -0.3,0.3 0,1.9 -2.2,3.6 -4.7,3.9 -0.4,0.1 -0.7,0.1 -1.1,0.1 -6.1,0 -16.6,-6.4 -21.7,-13 1.3,0.5 2.9,0.7 4.7,0.7 6.2,0 14.3,-2.6 18.6,-5.8 5.2,-3.8 7.3,-7.9 7.6,-11.2 0.5,-4 -2.6,-6.8 -7.5,-6.8 -1.9,0 -4,0.4 -6.4,1.3 -5.4,2.2 -11.9,7 -18.7,15.9 7.1,-11.7 21.2,-30.9 34.9,-43.1 7.5,-6.6 13.6,-9.7 16.6,-9.7 3.8,0 3.1,4.8 -5.2,13.5 -6.2,6.5 -17.9,14.9 -25.9,18.5 -2,0.9 -1.6,1.9 -0.5,1.9 0.3,0 0.6,-0.1 1,-0.2 8.6,-3.8 20,-11.5 26.9,-18 13.6,-12.8 10.9,-23.6 1,-23.6"
   id="path132" />
	
	<path
   class="st14"
   d="m 373.1,266.3 -0.6,1.6 c 0,0 0,0 0,0 0.5,-0.5 0.7,-1.2 0.6,-1.6"
   id="path134" />
	<path
   class="st0"
   d="m 359.6,277.1 c -0.1,0.1 -0.2,0.1 -0.3,0.2 l -1.7,4.5 c 0.1,-0.1 0.2,-0.1 0.2,-0.2 l 1.8,-4.5"
   id="path136" />
	
	<path
   class="st15"
   d="m 366.2,271.6 c -2,1.7 -4.2,3.6 -6.7,5.5 l -1.7,4.5 c 2.4,-1.8 4.7,-3.8 6.8,-5.7 l 1.6,-4.3"
   id="path138" />
	
	<path
   class="st16"
   d="m 372.6,266 c -0.3,0 -0.7,0.2 -1.3,0.8 -1,1.1 -2.8,2.8 -5.1,4.8 l -1.6,4.2 c 3.3,-3 6,-5.9 7.8,-7.8 l 0.6,-1.6 c 0,-0.3 -0.1,-0.4 -0.4,-0.4"
   id="path140" />
	
	<path
   class="st17"
   d="m 152.2,243.7 c 1.9,1.6 5.4,0.6 7.8,-1.9 2.5,-2.7 2.9,-6.2 0.9,-7.7 -1.9,-1.6 -5.4,-0.6 -7.8,2.1 -2.4,2.5 -2.8,5.9 -0.9,7.5 z m -5.7,5 c -0.5,0 -1.4,0.9 -0.6,1.3 1.1,0.4 1.6,1.3 1.6,2.6 -0.9,5.3 -7.6,11.4 -10.1,13.4 -0.6,0.6 0.3,2.1 0.9,1.6 1.4,-1.1 4.4,-3.5 6.8,-6.6 -4,8.9 -11.8,20.4 -14.8,24.5 -11.7,16.1 -29.4,31 -41.6,31 -9.8,0 -18,-6.6 -19.8,-16.3 -0.1,-1.1 -1.6,-1.3 -1.3,0.1 2.2,13.3 12.5,18.5 24.9,18.5 13.6,0 29.6,-9.8 38.4,-19.9 14.3,-16.3 23.5,-35 21,-45.6 -1.1,-4.1 -3.8,-4.7 -5.4,-4.6 z m 87.6,35.5 c 3.8,-0.9 6.8,-3 6.8,-6.3 0,-0.4 -0.6,-0.4 -0.6,0 0,1.9 -2.2,3.6 -4.7,3.9 -5.8,0.9 -17.4,-5.9 -22.8,-12.9 5.8,2.2 17.8,-1 23.4,-5 5.2,-3.8 7.3,-7.9 7.6,-11.2 0.6,-5.5 -5.4,-8.8 -13.9,-5.5 -5.4,2.2 -11.9,7 -18.7,15.9 7.1,-11.7 21.2,-30.9 34.9,-43.1 16.8,-14.9 26.4,-12 11.4,3.8 -6.2,6.5 -17.9,14.9 -25.9,18.5 -2.5,1.1 -1.3,2.5 0.5,1.7 8.6,-3.8 20,-11.5 26.9,-18 20.4,-19.5 3.4,-34.3 -19.2,-13.6 -15.3,14 -25.3,28.8 -34,47.9 -3,3.6 -5.2,6.6 -7.9,8.9 -0.4,0.3 -0.6,0.6 -0.8,0.9 -7.5,6.4 -19.2,15.1 -26.6,15.1 -5.2,0.1 -7.4,-3.8 -6.5,-8.8 1.4,-7.9 9.6,-17.2 16.6,-20.4 9.1,-4.1 14.4,3.9 2.5,10.3 -4.6,2.3 -10,3.6 -12.2,3.6 -2.6,0 -2.4,1.1 -0.1,1.1 3.6,0.1 9.5,-1.4 13.3,-3.2 12.2,-5.8 13,-16.7 -0.3,-17.1 -14.4,-0.5 -31.7,11.7 -31.5,27.2 0.1,7 5.7,10.7 13.3,10.7 12.8,-0.1 24.1,-9.8 33.4,-18.3 1.4,-1.1 2.6,-2.3 3.9,-3.6 -3.3,8.2 -4.9,15.9 -4.1,21.6 0.5,4.1 2.9,6 4.7,7.6 0.4,0.3 1.1,0 0.6,-0.8 -2.7,-3.2 -1.9,-12.8 1.8,-22.1 3.3,6.1 15.5,14 28.2,11.2 z m -15.4,-27 c 14.9,-13.3 20.7,-1.4 11.3,5.8 -4.9,3.8 -14.7,6.6 -17.8,4.8 l -0.6,-0.4 c -0.4,-0.6 -0.8,-1.3 -1.1,-1.9 2.5,-3 5.4,-5.8 8.2,-8.3 z m 82.9,-15.1 c 6,0.6 3.5,-6.6 -2.6,-4.8 -2.7,0.8 -5.3,6 -7.3,10.4 -6,8.9 -16,21 -23,27.4 -6.2,5.3 -11.9,6.8 -4.9,-3.2 2.9,-4 6.5,-8.2 8.6,-12.5 4.9,-10.7 -5.6,-15.5 -14,-9 -4.9,3.8 -11.5,11.5 -16.8,15.8 -1.4,1.1 -1.1,2.8 0.4,1.7 4.1,-3.3 11.4,-11 17.7,-15.5 5.2,-4 7.3,-1.4 4.3,1.9 -4.1,4.8 -11.4,13.1 -13.3,18.3 -2.6,7.9 0.5,11.4 5.7,11.4 7.1,0 17.8,-11.1 24.9,-19.9 2.4,-3 4.9,-6.5 7.1,-9.8 -6.2,12 -12.7,24.2 -20.7,35.2 -11.4,15.5 -25.7,27.2 -39.2,27.2 -9.8,0 -18.2,-6.6 -20,-16.3 -0.1,-1.1 -1.4,-1.3 -1.3,0.1 2.2,13.3 12.5,18.5 24.9,18.5 13.6,0 26.7,-7.9 35.9,-17.6 18.5,-19.5 20.7,-41.5 26.4,-53.8 2.8,-5.5 5.2,-5.8 7.2,-5.5 z M 377,223.3 c 2.7,-4.6 2.6,-8.2 -3.8,-8.2 -4.8,0.1 -13.5,3.5 -17.5,6.6 -0.9,0.9 -0.5,1.4 0.6,0.9 0.8,-0.3 1.7,-0.8 2.6,-1.1 4.6,-2.5 2.7,2.7 1.7,4.6 -5.4,9.5 -15,22.7 -20.1,29.4 -2.4,3.3 -5.1,6.5 -7.8,9.2 -4.8,4.6 -14.5,12.8 -21.8,15.5 -23.6,8.8 6.5,-31.3 9,-34.5 5.6,-7 18,-19.1 21.8,-25.2 2.7,-4.6 2.6,-8.2 -3.8,-8.2 -4.8,0.1 -13.5,3.5 -17.5,6.6 -0.9,0.9 -0.5,1.4 0.6,0.9 0.8,-0.3 1.7,-0.8 2.6,-1.1 4.6,-2.5 2.7,2.7 1.7,4.6 -5.4,9.5 -15,22.7 -20.1,29.4 -4.1,5.5 -9.2,11.1 -13.1,14.2 -1.6,1.3 -0.6,2.5 0.9,1.4 1.4,-0.9 3.5,-3 5.8,-5.4 -4.3,8.5 -7.8,20.5 3.5,22 9.6,1.3 21,-8.5 28.4,-15.7 0.8,-0.8 1.7,-1.7 2.6,-2.6 0.2,-0.2 0.4,-0.4 0.6,-0.6 -4.3,8.5 -7.8,20.5 3.5,22 12.3,1.7 27.7,-14.9 33.6,-21 1.1,-1.1 0.8,-3.1 -1.1,-1.1 -3.5,3.6 -15.3,14.4 -23.9,17.6 -23.6,8.8 6.5,-31.3 9,-34.5 5.8,-7.6 18.2,-19.7 22,-25.7 z"
   id="path142" />
</g>
</svg>
